P3
32 8
255
 0 255 0 0 255 0  255 0 0 255 0 0  0 255 0 0 255 0  255 0 255 255 0 255  85 85 85    85 85 85     85 85 85    85 85 85     85 85 85    85 85 85     170 170 170    170 170 170     255 0 255 255 0 255  0 255 255 0 255 255  255 0 255 255 0 255  0 255 0 0 255 0  0 255 0 0 255 0  0 0 0 0 0 0  0 255 0 0 255 0  0 0 255 0 0 255 
 0 255 0 0 255 0  255 0 0 255 0 0  0 255 0 0 255 0  255 0 255 255 0 255  85 85 85    85 85 85     85 85 85    85 85 85     85 85 85    85 85 85     170 170 170    170 170 170     255 0 255 255 0 255  0 255 255 0 255 255  255 0 255 255 0 255  0 255 0 0 255 0  0 255 0 0 255 0  0 0 0 0 0 0  0 255 0 0 255 0  0 0 255 0 0 255 
 0 0 255 0 0 255  0 255 255 0 255 255  0 0 0 0 0 0  0 0 0 0 0 0  85 85 85    85 85 85     170 170 170    170 170 170     0 0 0    0 0 0     0 0 0    0 0 0     255 255 0 255 255 0  255 0 0 255 0 0  255 255 255 255 255 255  255 255 255 255 255 255  0 0 255 0 0 255  0 255 255 0 255 255  0 0 0 0 0 0  0 0 0 0 0 0 
 0 0 255 0 0 255  0 255 255 0 255 255  0 0 0 0 0 0  0 0 0 0 0 0  85 85 85    85 85 85     170 170 170    170 170 170     0 0 0    0 0 0     0 0 0    0 0 0     255 255 0 255 255 0  255 0 0 255 0 0  255 255 255 255 255 255  255 255 255 255 255 255  0 0 255 0 0 255  0 255 255 0 255 255  0 0 0 0 0 0  0 0 0 0 0 0 
 0 0 0 0 0 0  255 0 0 255 0 0  255 0 0 255 0 0  255 0 255 255 0 255  0 0 0    0 0 0     85 85 85    85 85 85     85 85 85    85 85 85     170 170 170    170 170 170     255 255 255 255 255 255  0 255 255 0 255 255  0 255 255 0 255 255  0 255 0 0 255 0  0 0 0 0 0 0  0 0 0 0 0 0  0 0 0 0 0 0  0 0 255 0 0 255 
 0 0 0 0 0 0  255 0 0 255 0 0  255 0 0 255 0 0  255 0 255 255 0 255  0 0 0    0 0 0     85 85 85    85 85 85     85 85 85    85 85 85     170 170 170    170 170 170     255 255 255 255 255 255  0 255 255 0 255 255  0 255 255 0 255 255  0 255 0 0 255 0  0 0 0 0 0 0  0 0 0 0 0 0  0 0 0 0 0 0  0 0 255 0 0 255 
 255 0 255 255 0 255  0 255 0 0 255 0  255 0 0 255 0 0  255 255 0 255 255 0  170 170 170    170 170 170     85 85 85    85 85 85     85 85 85    85 85 85     170 170 170    170 170 170     0 255 0 0 255 0  255 0 255 255 0 255  0 255 255 0 255 255  0 0 255 0 0 255  0 0 255 0 0 255  0 255 0 0 255 0  0 0 0 0 0 0  0 255 0 0 255 0 
 255 0 255 255 0 255  0 255 0 0 255 0  255 0 0 255 0 0  255 255 0 255 255 0  170 170 170    170 170 170     85 85 85    85 85 85     85 85 85    85 85 85     170 170 170    170 170 170     0 255 0 0 255 0  255 0 255 255 0 255  0 255 255 0 255 255  0 0 255 0 0 255  0 0 255 0 0 255  0 255 0 0 255 0  0 0 0 0 0 0  0 255 0 0 255 0 
